<svg xmlns="http://www.w3.org/2000/svg" width="100%" height="100%" viewBox="0 0 180 180" preserveAspectRatio="xMidYMid meet" xmlns:v="https://vecta.io/nano"><path d="M76.5 4C44.8 9 16.7 33.4 7.2 64.1.8 84.7 2.9 109.9 12.5 129c9.3 18.5 27.9 35.3 46.8 42.5 21.3 8 49.5 6.7 69-3.2 25.2-12.7 43.5-37.1 47.7-63.6 1.7-10.5.8-29.1-1.9-38.5-8.3-28.8-32.9-52.8-61.6-60.2-9.3-2.4-27.1-3.4-36-2zm31.9 16c12.6 3.2 22.8 9.1 32.6 19 4.7 4.7 10 11.1 11.9 14.3 10.6 18 12.8 41.7 5.7 61.3-7.2 19.7-24.5 36.8-44.5 43.7-11.2 4-28.6 4.9-40.6 2.2-19.1-4.2-37-18-47.3-36.5-9.2-16.6-10.7-41-3.6-59.8C28.3 49.1 42.9 32.7 57 25.5c4.8-2.4 15.5-6.1 20-6.8 7.6-1.3 24.1-.6 31.4 1.3zm-20.9 7.5c-.5.2-2.2.6-3.7.9-3.4.8-9.4 5.9-11.4 9.7-1.8 3.6-1.8 12.2 0 15.7C75.6 60 82.8 64 90.6 64c5.8 0 10.4-2.2 14.8-7 9.8-10.9 2.6-27.2-12.9-29.3-2.2-.3-4.4-.4-5-.2zm-13.5 87V153h16 16v-38.5V76H90 74v38.5z"  fill="#FFFFFF"/></svg>